HIERARCHY
ROOT Hips
{
    OFFSET   0.000000   0.000000   0.000000
    CHANNELS 6 Xposition Yposition Zposition Zrotation Xrotation Yrotation
    JOINT Chest
    {
        OFFSET   0.000000   8.007230   0.000000
        CHANNELS 3 Zrotation Xrotation Yrotation
        JOINT Chest2
        {
            OFFSET   0.000000  22.077100   0.000000
            CHANNELS 3 Zrotation Xrotation Yrotation
            JOINT Neck
            {
                OFFSET   0.000000  23.255100   0.000000
                CHANNELS 3 Zrotation Xrotation Yrotation
                JOINT Head
                {
                    OFFSET   0.000000  14.370100   1.956600
                    CHANNELS 3 Zrotation Xrotation Yrotation
                    End Site
                    {
                        OFFSET   0.000000  19.566000   0.000000
                    }
                }
            }
            JOINT LeftCollar
            {
                OFFSET   3.911900  19.017000  -0.467063
                CHANNELS 3 Zrotation Xrotation Yrotation
                JOINT LeftShoulder
                {
                    OFFSET  10.383700   0.000000   0.000000
                    CHANNELS 3 Zrotation Xrotation Yrotation
                    JOINT LeftElbow
                    {
                        OFFSET  26.662100   0.001193   0.000980
                        CHANNELS 3 Zrotation Xrotation Yrotation
                        JOINT LeftWrist
                        {
                            OFFSET  28.869000  -0.000059  -0.000082
                            CHANNELS 3 Zrotation Xrotation Yrotation
                            JOINT LeftFinger0
                            {
                                OFFSET   2.044650  -2.323450   3.252850
                                CHANNELS 3 Zrotation Xrotation Yrotation
                                JOINT LeftFinger01
                                {
                                    OFFSET   3.088130   0.000000   0.000000
                                    CHANNELS 3 Zrotation Xrotation Yrotation
                                    JOINT LeftFinger02
                                    {
                                        OFFSET   2.639460   0.000000   0.000000
                                        CHANNELS 3 Zrotation Xrotation Yrotation
                                        End Site
                                        {
                                            OFFSET   2.582190   0.000000   0.000000
                                        }
                                    }
                                }
                            }
                            JOINT LeftFinger1
                            {
                                OFFSET   8.364480   0.000000   3.252850
                                CHANNELS 3 Zrotation Xrotation Yrotation
                                JOINT LeftFinger11
                                {
                                    OFFSET   4.646930   0.000000   0.000000
                                    CHANNELS 3 Zrotation Xrotation Yrotation
                                    JOINT LeftFinger12
                                    {
                                        OFFSET   2.323470   0.000000   0.000000
                                        CHANNELS 3 Zrotation Xrotation Yrotation
                                        End Site
                                        {
                                            OFFSET   2.273050   0.000000   0.000000
                                        }
                                    }
                                }
                            }
                            JOINT LeftFinger2
                            {
                                OFFSET   8.364490   0.000016   1.078090
                                CHANNELS 3 Zrotation Xrotation Yrotation
                                JOINT LeftFinger21
                                {
                                    OFFSET   5.111610   0.000000   0.000000
                                    CHANNELS 3 Zrotation Xrotation Yrotation
                                    JOINT LeftFinger22
                                    {
                                        OFFSET   2.788150   0.000016   0.000000
                                        CHANNELS 3 Zrotation Xrotation Yrotation
                                        End Site
                                        {
                                            OFFSET   2.727660   0.000000   0.000000
                                        }
                                    }
                                }
                            }
                            JOINT LeftFinger3
                            {
                                OFFSET   7.899780   0.000015  -1.078090
                                CHANNELS 3 Zrotation Xrotation Yrotation
                                JOINT LeftFinger31
                                {
                                    OFFSET   4.646930   0.000000   0.000000
                                    CHANNELS 3 Zrotation Xrotation Yrotation
                                    JOINT LeftFinger32
                                    {
                                        OFFSET   2.323470   0.000000   0.000000
                                        CHANNELS 3 Zrotation Xrotation Yrotation
                                        End Site
                                        {
                                            OFFSET   2.273050   0.000000   0.000000
                                        }
                                    }
                                }
                            }
                            JOINT LeftFinger4
                            {
                                OFFSET   7.435090   0.000000  -3.252850
                                CHANNELS 3 Zrotation Xrotation Yrotation
                                JOINT LeftFinger41
                                {
                                    OFFSET   3.717550   0.000000   0.000000
                                    CHANNELS 3 Zrotation Xrotation Yrotation
                                    JOINT LeftFinger42
                                    {
                                        OFFSET   1.858770   0.000000   0.000000
                                        CHANNELS 3 Zrotation Xrotation Yrotation
                                        End Site
                                        {
                                            OFFSET   1.818440   0.000000   0.000000
                                        }
                                    }
                                }
                            }
                        }
                    }
                }
            }
            JOINT RightCollar
            {
                OFFSET  -3.911910  19.017000  -0.467062
                CHANNELS 3 Zrotation Xrotation Yrotation
                JOINT RightShoulder
                {
                    OFFSET -10.383700   0.000014   0.000000
                    CHANNELS 3 Zrotation Xrotation Yrotation
                    JOINT RightElbow
                    {
                        OFFSET -26.662100   0.001225   0.001091
                        CHANNELS 3 Zrotation Xrotation Yrotation
                        JOINT RightWrist
                        {
                            OFFSET -28.869000  -0.000020  -0.000085
                            CHANNELS 3 Zrotation Xrotation Yrotation
                            JOINT RightFinger0
                            {
                                OFFSET  -2.044650  -2.323490   3.252850
                                CHANNELS 3 Zrotation Xrotation Yrotation
                                JOINT RightFinger01
                                {
                                    OFFSET  -3.088130   0.000000   0.000000
                                    CHANNELS 3 Zrotation Xrotation Yrotation
                                    JOINT RightFinger02
                                    {
                                        OFFSET  -2.639460   0.000000   0.000000
                                        CHANNELS 3 Zrotation Xrotation Yrotation
                                        End Site
                                        {
                                            OFFSET  -2.582190   0.000000   0.000000
                                        }
                                    }
                                }
                            }
                            JOINT RightFinger1
                            {
                                OFFSET  -8.364480   0.000000   3.252850
                                CHANNELS 3 Zrotation Xrotation Yrotation
                                JOINT RightFinger11
                                {
                                    OFFSET  -4.646930   0.000000   0.000000
                                    CHANNELS 3 Zrotation Xrotation Yrotation
                                    JOINT RightFinger12
                                    {
                                        OFFSET  -2.323470   0.000000   0.000000
                                        CHANNELS 3 Zrotation Xrotation Yrotation
                                        End Site
                                        {
                                            OFFSET  -2.273050   0.000000   0.000000
                                        }
                                    }
                                }
                            }
                            JOINT RightFinger2
                            {
                                OFFSET  -8.364480   0.000000   1.078090
                                CHANNELS 3 Zrotation Xrotation Yrotation
                                JOINT RightFinger21
                                {
                                    OFFSET  -5.111620   0.000000   0.000000
                                    CHANNELS 3 Zrotation Xrotation Yrotation
                                    JOINT RightFinger22
                                    {
                                        OFFSET  -2.788160   0.000000   0.000000
                                        CHANNELS 3 Zrotation Xrotation Yrotation
                                        End Site
                                        {
                                            OFFSET  -2.727660   0.000000   0.000000
                                        }
                                    }
                                }
                            }
                            JOINT RightFinger3
                            {
                                OFFSET  -7.899780   0.000000  -1.078090
                                CHANNELS 3 Zrotation Xrotation Yrotation
                                JOINT RightFinger31
                                {
                                    OFFSET  -4.646930   0.000000   0.000000
                                    CHANNELS 3 Zrotation Xrotation Yrotation
                                    JOINT RightFinger32
                                    {
                                        OFFSET  -2.323470   0.000000   0.000000
                                        CHANNELS 3 Zrotation Xrotation Yrotation
                                        End Site
                                        {
                                            OFFSET  -2.273050   0.000000   0.000000
                                        }
                                    }
                                }
                            }
                            JOINT RightFinger4
                            {
                                OFFSET  -7.435090   0.000000  -3.252850
                                CHANNELS 3 Zrotation Xrotation Yrotation
                                JOINT RightFinger41
                                {
                                    OFFSET  -3.717550   0.000000   0.000000
                                    CHANNELS 3 Zrotation Xrotation Yrotation
                                    JOINT RightFinger42
                                    {
                                        OFFSET  -1.858760   0.000000   0.000000
                                        CHANNELS 3 Zrotation Xrotation Yrotation
                                        End Site
                                        {
                                            OFFSET  -1.818440   0.000000   0.000000
                                        }
                                    }
                                }
                            }
                        }
                    }
                }
            }
        }
    }
    JOINT LeftHip
    {
        OFFSET   9.783030   0.000000   0.000000
        CHANNELS 3 Zrotation Xrotation Yrotation
        JOINT LeftKnee
        {
            OFFSET   0.000063 -41.789100   0.000608
            CHANNELS 3 Zrotation Xrotation Yrotation
            JOINT LeftAnkle
            {
                OFFSET   0.000048 -41.133200  -0.000184
                CHANNELS 3 Zrotation Xrotation Yrotation
                JOINT LeftToe
                {
                    OFFSET   0.000000  -6.358960  14.674500
                    CHANNELS 3 Zrotation Xrotation Yrotation
                    End Site
                    {
                        OFFSET   0.000000   0.000000   3.913200
                    }
                }
            }
        }
    }
    JOINT RightHip
    {
        OFFSET  -9.783030   0.000000   0.000000
        CHANNELS 3 Zrotation Xrotation Yrotation
        JOINT RightKnee
        {
            OFFSET   0.000071 -41.789100   0.001239
            CHANNELS 3 Zrotation Xrotation Yrotation
            JOINT RightAnkle
            {
                OFFSET   0.000037 -41.133200  -0.000166
                CHANNELS 3 Zrotation Xrotation Yrotation
                JOINT RightToe
                {
                    OFFSET   0.000000  -6.358960  14.674500
                    CHANNELS 3 Zrotation Xrotation Yrotation
                    End Site
                    {
                        OFFSET   0.000000   0.000000   3.913200
                    }
                }
            }
        }
    }
}
MOTION
Frames: 6
Frame Time:   0.016667
 -5.342410  88.852100   4.737400  -2.029620 -22.923800   2.051610   2.145840  11.751600   0.285727   4.375460  23.505600   0.113982   5.406030   2.023450  -0.191688   8.910980   3.993890   2.569460  -5.715960  -5.548480   2.692210 -72.657700  24.117800  -6.204590  -1.603100  -9.796490 -18.244800  16.777500  -6.554480   6.148370  37.246100  29.915100 -53.917800 -33.933400  -0.002432  -0.001513 -11.966700   0.000133  -0.003028 -32.264000   7.582070 -11.804600 -27.039000   0.008735  -0.000903 -18.927300   0.000398  -0.009801 -28.741900   0.242773  -0.442727 -39.919800   0.005162  -0.001610 -26.586600   0.003107  -0.004616 -28.752300   0.242857  -0.442681 -40.222800  -0.000162  -0.001681 -26.788400   0.007554  -0.010513 -34.524600   0.286027  -0.415989 -51.788400  -0.000024  -0.000501 -34.491000   0.000389  -0.010260   7.154850  -2.687410  11.064300  39.800300  10.195300  62.740400 -43.267000 -17.521900  48.371400 -63.613300   8.553350  31.365500 -58.133400  50.560800  87.827800  30.547000  -0.023510  -0.021289  10.273500  -0.013650  -0.001563  19.375200   5.380460  15.269100  16.444700   0.000708   0.003830  11.511300   0.001490   0.001095  19.116400   1.774980   5.677880  19.198200   0.001870  -0.003119  12.786100   0.000166  -0.001941  17.771100   0.923614   3.455290  17.789000  -0.000047  -0.005791  11.847500  -0.001570  -0.003311  22.904400   1.228200   3.362760  34.392300   0.003254  -0.026030  22.905300  -0.007275  -0.016982   5.016550  18.587200   0.189232   4.094160  14.375400   2.079860  -6.062260  -9.989560  -4.274920   0.000000   0.000000   0.000000   7.871240  25.714500  -2.774670   0.583189   2.561760  -7.666260  -2.347190  -7.003030   1.249950   0.000000   0.000000  -0.000000
 -5.252250  88.869300   4.776930  -2.107060 -22.858300   1.825860   2.136200  11.701400   0.335487   4.341430  23.407100   0.221217   5.442700   2.083470  -0.198486   8.973600   4.110830   2.520690  -5.747410  -5.529410   2.656670 -72.600600  24.286600  -6.354160  -1.491000  -9.746310 -18.291100  16.861700  -6.562290   6.168170  37.253100  29.888500 -53.788900 -33.920200  -0.002611  -0.001633 -11.960100   0.000106  -0.003032 -32.309700   7.569650 -11.766700 -27.074300   0.008742  -0.000907 -18.952000   0.000388  -0.009797 -28.742400   0.222121  -0.405029 -39.981700   0.005445  -0.001604 -26.627800   0.003082  -0.004626 -28.754500   0.222210  -0.404988 -40.332700  -0.000193  -0.001679 -26.861600   0.007573  -0.010509 -34.589900   0.262099  -0.380419 -51.886100  -0.000060  -0.000523 -34.556100   0.000379  -0.010297   7.197560  -2.719550  11.113500  38.820200  10.334800  63.082300 -42.856200 -17.002100  47.306100 -67.394400   5.608940  32.418100 -49.699100  48.096500  85.119700  33.630200  -0.047402  -0.021585  11.815100  -0.025368  -0.000560  21.624700   5.519530  13.546700  18.218600   0.000979  -0.011174  12.753000  -0.000998  -0.007732  21.995700   1.451790   3.501840  22.017100   0.013193  -0.010761  14.663400   0.006832  -0.008979  21.012400   0.486189   1.350950  20.991100   0.022641  -0.013958  13.980100   0.012576  -0.012325  26.944800   0.562595   1.322150  40.377300   0.028634  -0.045851  26.891300   0.003858  -0.035559   4.948130  18.705000   0.205373   4.049480  14.173500   2.195260  -5.971880  -9.970310  -4.128820   0.000000   0.000000   0.000000   7.773640  25.680100  -2.748370   0.557608   2.560470  -7.551050  -2.272750  -6.984060   1.363190  -0.000000   0.000000   0.000000
 -5.155260  88.889600   4.809730  -2.180970 -22.803900   1.624760   2.129010  11.651100   0.360353   4.318470  23.307600   0.277107   5.466680   2.131280  -0.202775   9.015740   4.203850   2.495630  -5.774560  -5.498300   2.658720 -72.561500  24.403700  -6.466930  -1.388230  -9.708500 -18.367800  16.934400  -6.632500   6.190620  37.293500  29.906400 -53.711200 -33.901100  -0.002793  -0.001801 -11.950600   0.000088  -0.003038 -32.356000   7.558520 -11.729500 -27.109300   0.008756  -0.000911 -18.976400   0.000377  -0.009795 -28.742900   0.202096  -0.368485 -40.053100   0.005731  -0.001600 -26.675300   0.003057  -0.004637 -28.757100   0.202189  -0.368446 -40.450600  -0.000223  -0.001681 -26.940100   0.007590  -0.010505 -34.662000   0.238866  -0.345817 -51.994100  -0.000078  -0.000545 -34.628000   0.000362  -0.010341   7.232050  -2.706630  11.167200  38.637400  10.282400  63.095600 -42.547700 -16.316600  47.101900 -65.990900   6.557010  31.267000 -42.798900  45.650600  83.583200  35.815500  -0.024176  -0.010763  12.907700  -0.012806  -0.000191  22.966700   5.619160  12.802900  19.297200  -0.012215  -0.016004  13.508000  -0.012150  -0.006060  23.195700   1.055480   2.178740  23.168400   0.004590  -0.007341  15.430200   0.001485  -0.005704  22.564100  -0.156202  -0.457167  22.548700   0.014654  -0.007251  15.017400   0.008203  -0.007015  29.418400  -0.243166  -0.417061  44.100100   0.020539  -0.028625  29.370700   0.003727  -0.023235   4.883430  18.841600   0.243243   4.012880  13.941300   2.277270  -5.876100  -9.934660  -3.992240   0.000000   0.000000   0.000000   7.679180  25.659200  -2.711290   0.534809   2.556120  -7.465960  -2.197140  -6.967030   1.469570   0.000000   0.000000   0.000000
 -5.050760  88.912700   4.838660  -2.249770 -22.757800   1.445790   2.123820  11.599100   0.367723   4.306900  23.203900   0.294870   5.477480   2.170020  -0.204848   9.033700   4.279770   2.485570  -5.797960  -5.446600   2.673790 -72.545800  24.451100  -6.549790  -1.294710  -9.673240 -18.464500  16.996300  -6.742540   6.213800  37.307100  29.933400 -53.658500 -33.881300  -0.002981  -0.001969 -11.940700   0.000067  -0.003044 -32.401700   7.548820 -11.694900 -27.143900   0.008773  -0.000914 -19.000700   0.000367  -0.009793 -28.743300   0.183424  -0.334414 -40.126500   0.006021  -0.001597 -26.724200   0.003033  -0.004648 -28.759800   0.183516  -0.334375 -40.566200  -0.000251  -0.001685 -27.017100   0.007608  -0.010502 -34.733900   0.217200  -0.313565 -52.101900  -0.000093  -0.000567 -34.699800   0.000343  -0.010386   7.267710  -2.680460  11.218900  38.726500  10.145100  63.051500 -42.383200 -15.719100  47.038000 -61.514900   9.017510  28.818300 -38.481000  43.527000  82.569700  36.947100   0.000076   0.000059  13.473500   0.000119  -0.000113  23.948400   5.843650  12.556300  20.101800  -0.025409  -0.016694  14.071200  -0.020344  -0.003045  23.799800   0.803188   1.555530  23.780800  -0.005389  -0.002182  15.838000  -0.003862  -0.002429  23.402800  -0.582242  -1.482910  23.416200   0.005600  -0.000357  15.595200   0.003497  -0.001257  31.127400  -0.754165  -1.400510  46.715200   0.009471  -0.006708  31.112300   0.002811  -0.007101   4.816990  18.992500   0.295630   3.983490  13.681500   2.337790  -5.774470  -9.882080  -3.865230  -0.000000   0.000000   0.000000   7.588940  25.643900  -2.666820   0.509333   2.553020  -7.398730  -2.120830  -6.951540   1.563570  -0.000000   0.000000  -0.000000
 -4.938300  88.939500   4.866370  -2.307250 -22.723200   1.298430   2.125420  11.544600   0.342187   4.313490  23.093900   0.243346   5.457260   2.200550  -0.205296   9.000040   4.341160   2.519520  -5.815570  -5.356500   2.730840 -72.557000  24.443400  -6.609560  -1.214330  -9.635710 -18.583100  17.037200  -6.845030   6.235760  37.343200  30.015000 -53.663900 -33.863200  -0.003175  -0.002074 -11.931600   0.000027  -0.003048 -32.438900   7.539530 -11.664600 -27.171900   0.008789  -0.000918 -19.020300   0.000358  -0.009789 -28.743700   0.167384  -0.305158 -40.185100   0.006320  -0.001593 -26.763200   0.003011  -0.004659 -28.762700   0.167469  -0.305114 -40.656200  -0.000279  -0.001689 -27.077000   0.007626  -0.010499 -34.790100   0.198525  -0.285929 -52.186000  -0.000111  -0.000590 -34.755800   0.000326  -0.010430   7.313780  -2.639340  11.274000  39.192800   9.886460  62.895000 -42.266900 -15.015400  47.410600 -53.095600  13.162600  25.690800 -38.599200  42.849300  82.256200  36.699100   0.000759  -0.000072  13.349500   0.000361  -0.000388  25.000000   6.636980  13.532100  21.071600  -0.025148  -0.016159  14.750100  -0.020056  -0.000003  24.779900   1.161740   2.322220  24.916300  -0.006994   0.000757  16.594300  -0.003232  -0.002800  24.302500  -0.473837  -1.090670  24.312300   0.004888  -0.000138  16.192000   0.003275  -0.000785  32.503800  -0.611337  -1.017880  48.772900   0.007310  -0.002374  32.482700   0.000260  -0.003876   4.745030  19.156100   0.362643   3.964350  13.395400   2.374800  -5.665010  -9.806900  -3.751990  -0.000000   0.000000  -0.000000   7.508060  25.632000  -2.615380   0.475841   2.558900  -7.348720  -2.045500  -6.939120   1.634660  -0.000000   0.000000   0.000000
 -4.819460  88.967800   4.890670  -2.358950 -22.695300   1.165800   2.131140  11.491200   0.303615   4.334010  22.985800   0.165492   5.418060   2.223520  -0.205365   8.937420   4.388460   2.553440  -5.825500  -5.256890   2.774730 -72.576300  24.436900  -6.645510  -1.147400  -9.594560 -18.709200  17.057500  -6.935390   6.248180  37.417500  30.125500 -53.722700 -33.849200  -0.003375  -0.002176 -11.924600   0.000000  -0.003052 -32.471700   7.532040 -11.639100 -27.196700   0.008804  -0.000921 -19.037700   0.000348  -0.009785 -28.744100   0.153276  -0.279431 -40.236300   0.006625  -0.001591 -26.797400   0.002989  -0.004671 -28.765300   0.153353  -0.279383 -40.733000  -0.000307  -0.001693 -27.128200   0.007644  -0.010497 -34.837700   0.182047  -0.261655 -52.257200  -0.000128  -0.000612 -34.803300   0.000311  -0.010475   7.361700  -2.611700  11.305200  39.566900   9.612530  62.736800 -42.076400 -14.547500  47.752000 -42.041700  17.985900  22.130700 -38.999500  42.222700  81.591500  36.450200   0.001442  -0.000992  13.225100   0.000603  -0.000664  25.913800   7.531330  14.933000  22.001400  -0.023326  -0.012415  15.401000  -0.018045   0.003020  25.763400   1.641580   3.350400  26.074400  -0.007223   0.003143  17.365600  -0.002206  -0.003512  25.102100  -0.365381  -0.698442  25.103700   0.004176  -0.000106  16.719000   0.003054  -0.000658  33.475300  -0.468447  -0.635272  50.216000   0.004840  -0.000453  33.443800  -0.002981  -0.002020   4.669680  19.330800   0.435166   3.947390  13.088400   2.409820  -5.551320  -9.717150  -3.651980  -0.000000   0.000000  -0.000000   7.431370  25.620900  -2.562050   0.436989   2.573450  -7.305700  -1.969900  -6.928190   1.695240   0.000000   0.000000   0.000000
